<mxfile host="app.diagrams.net" modified="2024-06-01T23:13:58.992Z" agent="Mozilla/5.0 (Windows NT 10.0; Win64; x64) AppleWebKit/537.36 (KHTML, like Gecko) Chrome/125.0.0.0 Safari/537.36 Edg/125.0.0.0" etag="aHN7Kq1cLASbBtIzVLBm" version="24.4.13" type="github">
  <diagram name="Page-1" id="RMxBBKbSQq_8yWAySJJG">
    <mxGraphModel dx="2481" dy="933" grid="1" gridSize="10" guides="1" tooltips="1" connect="1" arrows="1" fold="1" page="1" pageScale="1" pageWidth="850" pageHeight="1100" math="0" shadow="0">
      <root>
        <mxCell id="0" />
        <mxCell id="1" parent="0" />
        <mxCell id="FLAy8sRSA0ZP7F4m68x2-2" value="&lt;font style=&quot;font-size: 16px;&quot;&gt;Rare Skills I have&lt;/font&gt;" style="text;html=1;align=center;verticalAlign=middle;whiteSpace=wrap;rounded=0;" parent="1" vertex="1">
          <mxGeometry x="90" y="20" width="60" height="30" as="geometry" />
        </mxCell>
        <mxCell id="FLAy8sRSA0ZP7F4m68x2-3" value="&lt;font style=&quot;font-size: 16px;&quot;&gt;Interests I have&lt;/font&gt;" style="text;html=1;align=center;verticalAlign=middle;whiteSpace=wrap;rounded=0;" parent="1" vertex="1">
          <mxGeometry x="315" y="10" width="60" height="30" as="geometry" />
        </mxCell>
        <mxCell id="FLAy8sRSA0ZP7F4m68x2-41" style="edgeStyle=orthogonalEdgeStyle;rounded=0;orthogonalLoop=1;jettySize=auto;html=1;exitX=0.5;exitY=1;exitDx=0;exitDy=0;entryX=1;entryY=0.5;entryDx=0;entryDy=0;" parent="1" source="FLAy8sRSA0ZP7F4m68x2-4" target="FLAy8sRSA0ZP7F4m68x2-23" edge="1">
          <mxGeometry relative="1" as="geometry" />
        </mxCell>
        <mxCell id="FLAy8sRSA0ZP7F4m68x2-42" value="Studies" style="edgeLabel;html=1;align=center;verticalAlign=middle;resizable=0;points=[];" parent="FLAy8sRSA0ZP7F4m68x2-41" vertex="1" connectable="0">
          <mxGeometry x="-0.5156" relative="1" as="geometry">
            <mxPoint as="offset" />
          </mxGeometry>
        </mxCell>
        <mxCell id="FLAy8sRSA0ZP7F4m68x2-4" value="Digital Marketing" style="ellipse;whiteSpace=wrap;html=1;aspect=fixed;fillColor=#FFFFFF;strokeColor=#000000;" parent="1" vertex="1">
          <mxGeometry x="800" y="440" width="145" height="145" as="geometry" />
        </mxCell>
        <mxCell id="FLAy8sRSA0ZP7F4m68x2-5" value="UX" style="ellipse;whiteSpace=wrap;html=1;aspect=fixed;" parent="1" vertex="1">
          <mxGeometry x="660" y="560" width="80" height="80" as="geometry" />
        </mxCell>
        <mxCell id="FLAy8sRSA0ZP7F4m68x2-36" style="edgeStyle=orthogonalEdgeStyle;rounded=0;orthogonalLoop=1;jettySize=auto;html=1;exitX=1;exitY=0.5;exitDx=0;exitDy=0;entryX=0;entryY=0.5;entryDx=0;entryDy=0;" parent="1" source="FLAy8sRSA0ZP7F4m68x2-6" target="FLAy8sRSA0ZP7F4m68x2-23" edge="1">
          <mxGeometry relative="1" as="geometry" />
        </mxCell>
        <mxCell id="FLAy8sRSA0ZP7F4m68x2-6" value="Backend" style="ellipse;whiteSpace=wrap;html=1;aspect=fixed;" parent="1" vertex="1">
          <mxGeometry x="250" y="590" width="190" height="190" as="geometry" />
        </mxCell>
        <mxCell id="FLAy8sRSA0ZP7F4m68x2-7" value="E-commerce" style="ellipse;whiteSpace=wrap;html=1;aspect=fixed;fillColor=#FFFFFF;strokeColor=#000000;" parent="1" vertex="1">
          <mxGeometry x="850" y="225" width="160" height="160" as="geometry" />
        </mxCell>
        <mxCell id="FLAy8sRSA0ZP7F4m68x2-32" style="edgeStyle=orthogonalEdgeStyle;rounded=0;orthogonalLoop=1;jettySize=auto;html=1;exitX=1;exitY=0.5;exitDx=0;exitDy=0;entryX=0;entryY=0.5;entryDx=0;entryDy=0;" parent="1" source="FLAy8sRSA0ZP7F4m68x2-8" target="FLAy8sRSA0ZP7F4m68x2-31" edge="1">
          <mxGeometry relative="1" as="geometry" />
        </mxCell>
        <mxCell id="FLAy8sRSA0ZP7F4m68x2-8" value="Frontend" style="ellipse;whiteSpace=wrap;html=1;aspect=fixed;" parent="1" vertex="1">
          <mxGeometry x="240" y="330" width="180" height="180" as="geometry" />
        </mxCell>
        <mxCell id="FLAy8sRSA0ZP7F4m68x2-9" value="Graphic Design" style="ellipse;whiteSpace=wrap;html=1;aspect=fixed;" parent="1" vertex="1">
          <mxGeometry x="465" y="505" width="80" height="80" as="geometry" />
        </mxCell>
        <mxCell id="FLAy8sRSA0ZP7F4m68x2-10" value="Explaining" style="text;html=1;align=center;verticalAlign=middle;whiteSpace=wrap;rounded=0;" parent="1" vertex="1">
          <mxGeometry x="90" y="200" width="60" height="30" as="geometry" />
        </mxCell>
        <mxCell id="FLAy8sRSA0ZP7F4m68x2-12" value="Analysis &amp;amp; Strategy" style="text;html=1;align=center;verticalAlign=middle;whiteSpace=wrap;rounded=0;" parent="1" vertex="1">
          <mxGeometry x="70" y="160" width="100" height="30" as="geometry" />
        </mxCell>
        <mxCell id="FLAy8sRSA0ZP7F4m68x2-13" value="Sports" style="text;html=1;align=center;verticalAlign=middle;whiteSpace=wrap;rounded=0;" parent="1" vertex="1">
          <mxGeometry x="315" y="130" width="60" height="20" as="geometry" />
        </mxCell>
        <mxCell id="FLAy8sRSA0ZP7F4m68x2-14" value="Creativity" style="text;html=1;align=center;verticalAlign=middle;whiteSpace=wrap;rounded=0;" parent="1" vertex="1">
          <mxGeometry x="90" y="120" width="60" height="30" as="geometry" />
        </mxCell>
        <mxCell id="FLAy8sRSA0ZP7F4m68x2-15" value="Writing" style="text;html=1;align=center;verticalAlign=middle;whiteSpace=wrap;rounded=0;" parent="1" vertex="1">
          <mxGeometry x="90" y="80" width="60" height="30" as="geometry" />
        </mxCell>
        <mxCell id="FLAy8sRSA0ZP7F4m68x2-16" value="Traveling" style="text;html=1;align=center;verticalAlign=middle;whiteSpace=wrap;rounded=0;" parent="1" vertex="1">
          <mxGeometry x="315" y="160" width="60" height="30" as="geometry" />
        </mxCell>
        <mxCell id="FLAy8sRSA0ZP7F4m68x2-17" value="process of creativity" style="text;html=1;align=center;verticalAlign=middle;whiteSpace=wrap;rounded=0;" parent="1" vertex="1">
          <mxGeometry x="315" y="90" width="60" height="30" as="geometry" />
        </mxCell>
        <mxCell id="FLAy8sRSA0ZP7F4m68x2-27" style="edgeStyle=orthogonalEdgeStyle;rounded=0;orthogonalLoop=1;jettySize=auto;html=1;exitX=1;exitY=0;exitDx=0;exitDy=0;entryX=0;entryY=0.5;entryDx=0;entryDy=0;" parent="1" source="FLAy8sRSA0ZP7F4m68x2-19" target="FLAy8sRSA0ZP7F4m68x2-26" edge="1">
          <mxGeometry relative="1" as="geometry" />
        </mxCell>
        <mxCell id="FLAy8sRSA0ZP7F4m68x2-19" value="IT" style="ellipse;whiteSpace=wrap;html=1;aspect=fixed;fillColor=#FFFFFF;strokeColor=#000000;" parent="1" vertex="1">
          <mxGeometry x="-580" y="390" width="320" height="320" as="geometry" />
        </mxCell>
        <mxCell id="FLAy8sRSA0ZP7F4m68x2-45" style="edgeStyle=orthogonalEdgeStyle;rounded=0;orthogonalLoop=1;jettySize=auto;html=1;exitX=0;exitY=1;exitDx=0;exitDy=0;entryX=0.5;entryY=0;entryDx=0;entryDy=0;" parent="1" source="FLAy8sRSA0ZP7F4m68x2-20" target="FLAy8sRSA0ZP7F4m68x2-9" edge="1">
          <mxGeometry relative="1" as="geometry" />
        </mxCell>
        <mxCell id="okIdMxmNW0edKVUmgiHP-17" value="Execution" style="edgeLabel;html=1;align=center;verticalAlign=middle;resizable=0;points=[];" vertex="1" connectable="0" parent="FLAy8sRSA0ZP7F4m68x2-45">
          <mxGeometry x="-0.1284" y="-1" relative="1" as="geometry">
            <mxPoint as="offset" />
          </mxGeometry>
        </mxCell>
        <mxCell id="FLAy8sRSA0ZP7F4m68x2-46" style="edgeStyle=orthogonalEdgeStyle;rounded=0;orthogonalLoop=1;jettySize=auto;html=1;exitX=1;exitY=1;exitDx=0;exitDy=0;entryX=0.5;entryY=0;entryDx=0;entryDy=0;" parent="1" source="FLAy8sRSA0ZP7F4m68x2-20" target="FLAy8sRSA0ZP7F4m68x2-5" edge="1">
          <mxGeometry relative="1" as="geometry" />
        </mxCell>
        <mxCell id="okIdMxmNW0edKVUmgiHP-4" value="Intent" style="edgeLabel;html=1;align=center;verticalAlign=middle;resizable=0;points=[];" vertex="1" connectable="0" parent="FLAy8sRSA0ZP7F4m68x2-46">
          <mxGeometry x="-0.3874" y="1" relative="1" as="geometry">
            <mxPoint as="offset" />
          </mxGeometry>
        </mxCell>
        <mxCell id="FLAy8sRSA0ZP7F4m68x2-20" value="UI" style="ellipse;whiteSpace=wrap;html=1;aspect=fixed;" parent="1" vertex="1">
          <mxGeometry x="590" y="400" width="70" height="70" as="geometry" />
        </mxCell>
        <mxCell id="FLAy8sRSA0ZP7F4m68x2-23" value="Algorithm" style="ellipse;whiteSpace=wrap;html=1;aspect=fixed;" parent="1" vertex="1">
          <mxGeometry x="520" y="710" width="160" height="160" as="geometry" />
        </mxCell>
        <mxCell id="FLAy8sRSA0ZP7F4m68x2-24" value="" style="ellipse;whiteSpace=wrap;html=1;aspect=fixed;" parent="1" vertex="1">
          <mxGeometry x="990" y="630" width="80" height="80" as="geometry" />
        </mxCell>
        <mxCell id="FLAy8sRSA0ZP7F4m68x2-25" value="" style="ellipse;whiteSpace=wrap;html=1;aspect=fixed;" parent="1" vertex="1">
          <mxGeometry x="990" y="750" width="80" height="80" as="geometry" />
        </mxCell>
        <mxCell id="FLAy8sRSA0ZP7F4m68x2-28" style="edgeStyle=orthogonalEdgeStyle;rounded=0;orthogonalLoop=1;jettySize=auto;html=1;exitX=1;exitY=0.5;exitDx=0;exitDy=0;" parent="1" source="FLAy8sRSA0ZP7F4m68x2-26" target="FLAy8sRSA0ZP7F4m68x2-8" edge="1">
          <mxGeometry relative="1" as="geometry" />
        </mxCell>
        <mxCell id="FLAy8sRSA0ZP7F4m68x2-29" style="edgeStyle=orthogonalEdgeStyle;rounded=0;orthogonalLoop=1;jettySize=auto;html=1;exitX=1;exitY=0.5;exitDx=0;exitDy=0;entryX=0;entryY=0.5;entryDx=0;entryDy=0;" parent="1" source="FLAy8sRSA0ZP7F4m68x2-26" target="FLAy8sRSA0ZP7F4m68x2-6" edge="1">
          <mxGeometry relative="1" as="geometry">
            <Array as="points">
              <mxPoint x="200" y="525" />
              <mxPoint x="200" y="685" />
            </Array>
          </mxGeometry>
        </mxCell>
        <mxCell id="FLAy8sRSA0ZP7F4m68x2-26" value="Web Development" style="ellipse;whiteSpace=wrap;html=1;aspect=fixed;" parent="1" vertex="1">
          <mxGeometry x="-70" y="410" width="230" height="230" as="geometry" />
        </mxCell>
        <mxCell id="FLAy8sRSA0ZP7F4m68x2-30" value="SEO" style="ellipse;whiteSpace=wrap;html=1;aspect=fixed;" parent="1" vertex="1">
          <mxGeometry x="540" y="290" width="80" height="80" as="geometry" />
        </mxCell>
        <mxCell id="FLAy8sRSA0ZP7F4m68x2-33" style="edgeStyle=orthogonalEdgeStyle;rounded=0;orthogonalLoop=1;jettySize=auto;html=1;exitX=1;exitY=0.5;exitDx=0;exitDy=0;" parent="1" source="FLAy8sRSA0ZP7F4m68x2-31" target="FLAy8sRSA0ZP7F4m68x2-20" edge="1">
          <mxGeometry relative="1" as="geometry" />
        </mxCell>
        <mxCell id="FLAy8sRSA0ZP7F4m68x2-35" style="edgeStyle=orthogonalEdgeStyle;rounded=0;orthogonalLoop=1;jettySize=auto;html=1;exitX=0.5;exitY=0;exitDx=0;exitDy=0;entryX=0;entryY=0.5;entryDx=0;entryDy=0;" parent="1" source="FLAy8sRSA0ZP7F4m68x2-31" target="FLAy8sRSA0ZP7F4m68x2-30" edge="1">
          <mxGeometry relative="1" as="geometry" />
        </mxCell>
        <mxCell id="FLAy8sRSA0ZP7F4m68x2-31" value="Browser" style="ellipse;whiteSpace=wrap;html=1;aspect=fixed;" parent="1" vertex="1">
          <mxGeometry x="460" y="360" width="80" height="80" as="geometry" />
        </mxCell>
        <mxCell id="FLAy8sRSA0ZP7F4m68x2-39" style="edgeStyle=orthogonalEdgeStyle;rounded=0;orthogonalLoop=1;jettySize=auto;html=1;exitX=0.5;exitY=1;exitDx=0;exitDy=0;entryX=0.552;entryY=0.014;entryDx=0;entryDy=0;entryPerimeter=0;" parent="1" source="FLAy8sRSA0ZP7F4m68x2-7" target="FLAy8sRSA0ZP7F4m68x2-4" edge="1">
          <mxGeometry relative="1" as="geometry" />
        </mxCell>
        <mxCell id="FLAy8sRSA0ZP7F4m68x2-43" style="edgeStyle=orthogonalEdgeStyle;rounded=0;orthogonalLoop=1;jettySize=auto;html=1;exitX=0;exitY=0;exitDx=0;exitDy=0;entryX=0.988;entryY=0.388;entryDx=0;entryDy=0;entryPerimeter=0;" parent="1" source="FLAy8sRSA0ZP7F4m68x2-4" target="FLAy8sRSA0ZP7F4m68x2-30" edge="1">
          <mxGeometry relative="1" as="geometry" />
        </mxCell>
        <mxCell id="FLAy8sRSA0ZP7F4m68x2-44" value="Studies" style="edgeLabel;html=1;align=center;verticalAlign=middle;resizable=0;points=[];" parent="FLAy8sRSA0ZP7F4m68x2-43" vertex="1" connectable="0">
          <mxGeometry x="-0.6797" y="-1" relative="1" as="geometry">
            <mxPoint as="offset" />
          </mxGeometry>
        </mxCell>
        <mxCell id="FLAy8sRSA0ZP7F4m68x2-47" value="Actor" style="shape=umlActor;verticalLabelPosition=bottom;verticalAlign=top;html=1;outlineConnect=0;" parent="1" vertex="1">
          <mxGeometry x="900" y="540" width="30" height="60" as="geometry" />
        </mxCell>
        <mxCell id="FLAy8sRSA0ZP7F4m68x2-48" value="Actor" style="shape=umlActor;verticalLabelPosition=bottom;verticalAlign=top;html=1;outlineConnect=0;" parent="1" vertex="1">
          <mxGeometry x="1150" y="640" width="30" height="60" as="geometry" />
        </mxCell>
        <mxCell id="FLAy8sRSA0ZP7F4m68x2-49" value="" style="edgeStyle=orthogonalEdgeStyle;rounded=0;orthogonalLoop=1;jettySize=auto;html=1;" parent="1" source="FLAy8sRSA0ZP7F4m68x2-24" target="FLAy8sRSA0ZP7F4m68x2-48" edge="1">
          <mxGeometry relative="1" as="geometry" />
        </mxCell>
        <mxCell id="FLAy8sRSA0ZP7F4m68x2-51" value="Designer" style="shape=umlActor;verticalLabelPosition=bottom;verticalAlign=top;html=1;outlineConnect=0;" parent="1" vertex="1">
          <mxGeometry x="720" y="600" width="30" height="60" as="geometry" />
        </mxCell>
        <mxCell id="FLAy8sRSA0ZP7F4m68x2-52" value="Designer" style="shape=umlActor;verticalLabelPosition=bottom;verticalAlign=top;html=1;outlineConnect=0;" parent="1" vertex="1">
          <mxGeometry x="520" y="560" width="30" height="60" as="geometry" />
        </mxCell>
        <mxCell id="FLAy8sRSA0ZP7F4m68x2-53" value="Actor" style="shape=umlActor;verticalLabelPosition=bottom;verticalAlign=top;html=1;outlineConnect=0;" parent="1" vertex="1">
          <mxGeometry x="30" y="610" width="30" height="60" as="geometry" />
        </mxCell>
        <mxCell id="okIdMxmNW0edKVUmgiHP-1" value="&lt;font style=&quot;font-size: 20px;&quot;&gt;WHAT AM I GOOD AT ?&lt;/font&gt;" style="text;html=1;align=center;verticalAlign=middle;whiteSpace=wrap;rounded=0;" vertex="1" parent="1">
          <mxGeometry x="-300" y="50" width="260" height="30" as="geometry" />
        </mxCell>
        <mxCell id="okIdMxmNW0edKVUmgiHP-2" value="&lt;font style=&quot;font-size: 20px;&quot;&gt;WHAT DO I LOVE DOING ?&lt;/font&gt;" style="text;html=1;align=center;verticalAlign=middle;whiteSpace=wrap;rounded=0;" vertex="1" parent="1">
          <mxGeometry x="-290" y="120" width="260" height="30" as="geometry" />
        </mxCell>
        <mxCell id="okIdMxmNW0edKVUmgiHP-7" value="" style="ellipse;whiteSpace=wrap;html=1;aspect=fixed;fillColor=#e1d5e7;strokeColor=#9673a6;" vertex="1" parent="1">
          <mxGeometry x="150" y="200" width="30" height="30" as="geometry" />
        </mxCell>
        <mxCell id="okIdMxmNW0edKVUmgiHP-8" value="" style="ellipse;whiteSpace=wrap;html=1;aspect=fixed;fillColor=#f8cecc;strokeColor=#b85450;" vertex="1" parent="1">
          <mxGeometry x="150" y="160" width="30" height="30" as="geometry" />
        </mxCell>
        <mxCell id="okIdMxmNW0edKVUmgiHP-9" value="" style="ellipse;whiteSpace=wrap;html=1;aspect=fixed;fillColor=#d5e8d4;strokeColor=#82b366;" vertex="1" parent="1">
          <mxGeometry x="150" y="120" width="30" height="30" as="geometry" />
        </mxCell>
        <mxCell id="okIdMxmNW0edKVUmgiHP-10" value="" style="ellipse;whiteSpace=wrap;html=1;aspect=fixed;fillColor=#dae8fc;strokeColor=#6c8ebf;" vertex="1" parent="1">
          <mxGeometry x="150" y="80" width="30" height="30" as="geometry" />
        </mxCell>
        <mxCell id="okIdMxmNW0edKVUmgiHP-11" value="" style="ellipse;whiteSpace=wrap;html=1;aspect=fixed;fillColor=#f8cecc;strokeColor=#b85450;" vertex="1" parent="1">
          <mxGeometry x="685" y="620" width="30" height="30" as="geometry" />
        </mxCell>
        <mxCell id="okIdMxmNW0edKVUmgiHP-12" value="" style="ellipse;whiteSpace=wrap;html=1;aspect=fixed;fillColor=#d5e8d4;strokeColor=#82b366;" vertex="1" parent="1">
          <mxGeometry x="660" y="610" width="30" height="30" as="geometry" />
        </mxCell>
        <mxCell id="okIdMxmNW0edKVUmgiHP-15" value="" style="ellipse;whiteSpace=wrap;html=1;aspect=fixed;fillColor=#e1d5e7;strokeColor=#9673a6;" vertex="1" parent="1">
          <mxGeometry x="650" y="585" width="30" height="30" as="geometry" />
        </mxCell>
        <mxCell id="okIdMxmNW0edKVUmgiHP-16" value="Entrepreneurship" style="text;html=1;align=center;verticalAlign=middle;whiteSpace=wrap;rounded=0;" vertex="1" parent="1">
          <mxGeometry x="315" y="201" width="60" height="30" as="geometry" />
        </mxCell>
      </root>
    </mxGraphModel>
  </diagram>
</mxfile>
